<?xml version="1.0" encoding="utf-8"?>
<!-- Generator: Adobe Illustrator 24.0.0, SVG Export Plug-In . SVG Version: 6.00 Build 0)  -->
<svg version="1.1" xmlns="http://www.w3.org/2000/svg" xmlns:xlink="http://www.w3.org/1999/xlink" x="0px" y="0px"
	 viewBox="0 0 389 142" style="enable-background:new 0 0 389 142;" xml:space="preserve">
<style type="text/css">
	.st0{display:none;}
	.st1{fill-rule:evenodd;clip-rule:evenodd;fill:#3168B2;}
	.st2{fill:#3168B2;}
</style>
<g id="Siatka" class="st0">
</g>
<g id="Warstwa_1" class="st0">
</g>
<g id="Pulpit">
</g>
<g id="Prowadnice">
</g>
<g id="Page_1">
	<g id="Warstwa_1_1_">
		<path class="st1" d="M57.1,114.3h274.7c31.4,0,57.1-25.7,57.1-57.1l0,0C389,25.7,363.3,0,331.8,0H57.1C25.7,0,0,25.7,0,57.1l0,0
			C0,88.6,25.7,114.3,57.1,114.3L57.1,114.3z M57.1,9.2h274.7c26.3,0,47.9,21.6,47.9,47.9l0,0c0,26.3-21.6,47.9-47.9,47.9H57.1
			C30.8,105,9.2,83.5,9.2,57.1l0,0C9.2,30.8,30.8,9.2,57.1,9.2L57.1,9.2z"/>
		<path class="st1" d="M74,27.8c0-2.3,0-4.6,0-6.9c4.6,0,9.2,0,13.9,0c0,8.2,0,16.4,0,24.7c-4.9,0-9.8,0-14.6,0
			c-0.5-8.3-6.2-14.3-12.3-14.1c-6.2-0.3-11.6,3.3-12.3,16.2c-0.2,2.7-0.3,13.2,0,17.5c0.5,9.3,7.5,14.3,11.6,14.4
			c8.4,0,11.9-6.2,12.1-13.1c5.3,0,10.6,0,15.9,0C87.4,82.7,79,92.8,58.4,92c-17-1.2-27.7-13.5-28-35.7c0.9-21.2,9.1-37.6,28-36.7
			C64.6,19.5,70.4,23.6,74,27.8L74,27.8z"/>
		<polygon class="st1" points="94.1,20.7 124.6,20.7 124.6,32.5 117.4,32.5 117.4,78.7 124.6,78.7 124.6,89.5 94.1,89.5 94.1,78.7 
			100.5,78.7 100.5,32.5 94.1,32.5 94.1,20.7 		"/>
		<path class="st1" d="M130,90h24.1V78.4h-4.9V35.3l11,27.1v-0.1l2.3,5.7h14.6l3.6-8.4v0.1l1-2.5l6.2-14.4l-0.1-0.3l3.9-9.5v45.3
			h-7.4V90h26.7V78.4h-5.6V32.2h5.6V20.9H181l-0.2-0.5l-10.3,23.4l-10.3-22.6v-0.3h-0.1l-0.1-0.3c0,0-0.1,0.1-0.2,0.3H130v11.3h5.7
			v46.2H130V90L130,90z"/>
		<path class="st1" d="M254.1,89.7h26.7V78.4h-3.9l-20.3-57.5h-2.9h-11.5h-2.9L219,78.4h-3.8v11.3h25.4V78.4h-7.3l3-8.5h23.1l3,8.5
			h-8.4V89.7L254.1,89.7z M255.4,58.4h-14.9l7.5-21.2L255.4,58.4L255.4,58.4z"/>
		<polygon class="st1" points="279.5,20.9 336.2,20.9 336.2,37.9 324.4,37.9 324.4,31.7 316,31.7 316,37.9 316,78.7 323.4,78.7 
			323.4,89.5 293.4,89.5 293.4,78.7 299.8,78.7 299.8,37.9 299.8,31.7 291.3,31.7 291.3,37.9 279.5,37.9 279.5,20.9 		"/>
		<path class="st2" d="M337.9,90.6V80.5h4.5c0.9,0,1.6,0.1,2.1,0.3c0.5,0.2,0.8,0.5,1.1,1c0.3,0.5,0.4,1,0.4,1.5
			c0,0.7-0.2,1.3-0.7,1.8c-0.5,0.5-1.2,0.8-2.1,0.9c0.4,0.2,0.6,0.3,0.8,0.5c0.4,0.4,0.8,0.8,1.1,1.3l1.8,2.8h-1.7l-1.3-2.1
			c-0.4-0.6-0.7-1.1-1-1.4c-0.3-0.3-0.5-0.5-0.7-0.7c-0.2-0.1-0.4-0.2-0.6-0.3c-0.2,0-0.4,0-0.7,0h-1.6v4.5H337.9L337.9,90.6z
			 M339.2,84.9h2.9c0.6,0,1.1-0.1,1.4-0.2c0.3-0.1,0.6-0.3,0.8-0.6c0.2-0.3,0.3-0.6,0.3-0.9c0-0.5-0.2-0.9-0.5-1.2
			c-0.3-0.3-0.9-0.5-1.6-0.5h-3.2V84.9L339.2,84.9z"/>
		<path class="st1" d="M341.4,98c6.7,0,12.1-5.4,12.1-12.1c0-6.7-5.4-12.1-12.1-12.1c-6.7,0-12.1,5.4-12.1,12.1
			C329.3,92.5,334.7,98,341.4,98L341.4,98z M341.4,95.6c5.4,0,9.8-4.4,9.8-9.8c0-5.4-4.4-9.8-9.8-9.8c-5.4,0-9.8,4.4-9.8,9.8
			C331.6,91.3,336,95.6,341.4,95.6L341.4,95.6z"/>
		<g>
			<path class="st2" d="M4.3,141.6v-24.3h9.1c1.9,0,3.4,0.2,4.5,0.7c1.1,0.5,2,1.3,2.6,2.3c0.6,1,1,2.1,1,3.2c0,1-0.3,2-0.8,2.9
				c-0.6,0.9-1.4,1.7-2.6,2.2c1.5,0.4,2.6,1.2,3.4,2.2c0.8,1,1.2,2.3,1.2,3.7c0,1.1-0.2,2.2-0.7,3.2c-0.5,1-1.1,1.7-1.8,2.3
				c-0.7,0.5-1.6,0.9-2.7,1.2c-1.1,0.3-2.4,0.4-3.9,0.4H4.3z M7.5,127.5h5.3c1.4,0,2.5-0.1,3.1-0.3c0.8-0.2,1.4-0.6,1.9-1.2
				c0.4-0.6,0.6-1.3,0.6-2.1c0-0.8-0.2-1.5-0.6-2.1c-0.4-0.6-0.9-1-1.7-1.3c-0.7-0.2-2-0.3-3.7-0.3H7.5V127.5z M7.5,138.8h6.1
				c1,0,1.8,0,2.2-0.1c0.7-0.1,1.4-0.4,1.9-0.7c0.5-0.3,0.9-0.8,1.2-1.4c0.3-0.6,0.5-1.3,0.5-2c0-0.9-0.2-1.7-0.7-2.4
				c-0.5-0.7-1.1-1.1-1.9-1.4c-0.8-0.3-2-0.4-3.6-0.4H7.5V138.8z"/>
			<path class="st2" d="M24.4,141.6l9.3-24.3h3.5l10,24.3h-3.7l-2.8-7.4H30.5l-2.7,7.4H24.4z M31.4,131.6h8.3l-2.5-6.7
				c-0.8-2-1.4-3.7-1.7-5c-0.3,1.6-0.7,3.1-1.3,4.6L31.4,131.6z"/>
			<path class="st2" d="M49.6,141.6v-24.3h3.2v21.5h12v2.9H49.6z"/>
			<path class="st2" d="M66,141.6l9.3-24.3h3.5l10,24.3h-3.7l-2.8-7.4H72.1l-2.7,7.4H66z M73,131.6h8.3l-2.5-6.7
				c-0.8-2-1.4-3.7-1.7-5c-0.3,1.6-0.7,3.1-1.3,4.6L73,131.6z"/>
			<path class="st2" d="M91.3,141.6v-24.3h3.3l12.8,19.1v-19.1h3.1v24.3h-3.3l-12.8-19.1v19.1H91.3z"/>
			<path class="st2" d="M133.3,133.1l3.2,0.8c-0.7,2.6-1.9,4.7-3.6,6.1c-1.8,1.4-3.9,2.1-6.4,2.1c-2.6,0-4.8-0.5-6.4-1.6
				c-1.6-1.1-2.9-2.6-3.8-4.6c-0.9-2-1.3-4.2-1.3-6.5c0-2.5,0.5-4.7,1.5-6.6c1-1.9,2.3-3.3,4.1-4.3c1.8-1,3.8-1.5,5.9-1.5
				c2.4,0,4.5,0.6,6.1,1.9c1.7,1.2,2.8,3,3.5,5.2l-3.2,0.7c-0.6-1.8-1.4-3.1-2.5-3.9s-2.4-1.2-4.1-1.2c-1.9,0-3.4,0.4-4.7,1.3
				c-1.3,0.9-2.1,2.1-2.6,3.6c-0.5,1.5-0.8,3.1-0.8,4.7c0,2.1,0.3,3.9,0.9,5.4c0.6,1.5,1.5,2.7,2.8,3.5c1.3,0.8,2.7,1.1,4.1,1.1
				c1.8,0,3.3-0.5,4.6-1.6C132,136.7,132.8,135.1,133.3,133.1z"/>
			<path class="st2" d="M141,141.6v-24.3h3.2v24.3H141z"/>
			<path class="st2" d="M149.9,141.6v-24.3h3.3l12.8,19.1v-19.1h3.1v24.3h-3.3L153,122.5v19.1H149.9z"/>
			<path class="st2" d="M185.9,132.1v-2.9l10.3,0v9c-1.6,1.3-3.2,2.2-4.9,2.8c-1.7,0.6-3.4,1-5.2,1c-2.4,0-4.6-0.5-6.5-1.5
				c-2-1-3.4-2.5-4.4-4.4c-1-1.9-1.5-4.1-1.5-6.5c0-2.4,0.5-4.6,1.5-6.6c1-2.1,2.4-3.6,4.3-4.6c1.9-1,4-1.5,6.4-1.5
				c1.8,0,3.4,0.3,4.8,0.9c1.4,0.6,2.5,1.4,3.3,2.4c0.8,1,1.4,2.3,1.8,4l-2.9,0.8c-0.4-1.2-0.8-2.2-1.4-2.9
				c-0.5-0.7-1.3-1.3-2.3-1.7c-1-0.4-2.1-0.6-3.4-0.6c-1.5,0-2.7,0.2-3.8,0.7c-1.1,0.4-1.9,1-2.6,1.8c-0.7,0.7-1.2,1.5-1.5,2.4
				c-0.6,1.5-0.9,3.1-0.9,4.9c0,2.2,0.4,4,1.1,5.4c0.7,1.5,1.8,2.5,3.3,3.3c1.4,0.7,2.9,1.1,4.5,1.1c1.4,0,2.8-0.3,4.1-0.8
				c1.3-0.5,2.3-1.1,3-1.7v-4.5H185.9z"/>
			<path class="st2" d="M210.3,141.6v-24.3h4.8l5.8,17.2c0.5,1.6,0.9,2.8,1.2,3.6c0.3-0.9,0.7-2.2,1.3-3.9l5.8-16.9h4.3v24.3h-3.1
				v-20.4l-7.1,20.4h-2.9l-7-20.7v20.7H210.3z"/>
			<path class="st2" d="M236,141.6l9.3-24.3h3.5l10,24.3h-3.7l-2.8-7.4h-10.2l-2.7,7.4H236z M243,131.6h8.2l-2.5-6.7
				c-0.8-2-1.3-3.7-1.7-5c-0.3,1.6-0.7,3.1-1.3,4.6L243,131.6z"/>
			<path class="st2" d="M278.7,133.1l3.2,0.8c-0.7,2.6-1.9,4.7-3.6,6.1c-1.8,1.4-3.9,2.1-6.4,2.1c-2.6,0-4.8-0.5-6.4-1.6
				c-1.6-1.1-2.9-2.6-3.8-4.6c-0.9-2-1.3-4.2-1.3-6.5c0-2.5,0.5-4.7,1.5-6.6c1-1.9,2.3-3.3,4.1-4.3c1.8-1,3.8-1.5,5.9-1.5
				c2.4,0,4.5,0.6,6.1,1.9c1.7,1.2,2.8,3,3.5,5.2l-3.2,0.7c-0.6-1.8-1.4-3.1-2.5-3.9s-2.4-1.2-4.1-1.2c-1.9,0-3.4,0.4-4.7,1.3
				c-1.3,0.9-2.1,2.1-2.6,3.6c-0.5,1.5-0.8,3.1-0.8,4.7c0,2.1,0.3,3.9,0.9,5.4c0.6,1.5,1.5,2.7,2.8,3.5c1.3,0.8,2.7,1.1,4.1,1.1
				c1.8,0,3.3-0.5,4.6-1.6C277.4,136.7,278.3,135.1,278.7,133.1z"/>
			<path class="st2" d="M286,141.6v-24.3h3.2v10h12.7v-10h3.2v24.3h-3.2v-11.5h-12.7v11.5H286z"/>
			<path class="st2" d="M311,141.6v-24.3h3.2v24.3H311z"/>
			<path class="st2" d="M319.9,141.6v-24.3h3.3l12.8,19.1v-19.1h3.1v24.3h-3.3L323,122.5v19.1H319.9z"/>
			<path class="st2" d="M344.5,141.6v-24.3h17.6v2.9h-14.4v7.5h13.5v2.9h-13.5v8.3h14.9v2.9H344.5z"/>
			<path class="st2" d="M366,133.8l3-0.3c0.1,1.2,0.5,2.2,1,3c0.5,0.8,1.3,1.4,2.4,1.9c1.1,0.5,2.4,0.7,3.7,0.7
				c1.2,0,2.3-0.2,3.3-0.5c0.9-0.4,1.6-0.9,2.1-1.5c0.5-0.6,0.7-1.3,0.7-2.1c0-0.8-0.2-1.4-0.7-2c-0.4-0.6-1.2-1-2.2-1.4
				c-0.7-0.3-2.1-0.7-4.3-1.2c-2.2-0.5-3.8-1-4.7-1.5c-1.2-0.6-2-1.4-2.6-2.3c-0.6-0.9-0.9-1.9-0.9-3c0-1.2,0.3-2.4,1-3.4
				c0.7-1.1,1.7-1.9,3.1-2.4c1.3-0.6,2.8-0.8,4.5-0.8c1.8,0,3.4,0.3,4.8,0.9c1.4,0.6,2.4,1.4,3.2,2.6c0.7,1.1,1.1,2.4,1.2,3.8
				l-3.1,0.2c-0.2-1.5-0.7-2.7-1.7-3.5c-1-0.8-2.4-1.2-4.2-1.2c-1.9,0-3.4,0.4-4.3,1.1c-0.9,0.7-1.3,1.6-1.3,2.6
				c0,0.9,0.3,1.6,0.9,2.2c0.6,0.6,2.2,1.1,4.9,1.7c2.6,0.6,4.4,1.1,5.4,1.6c1.4,0.7,2.5,1.5,3.1,2.5c0.7,1,1,2.2,1,3.5
				c0,1.3-0.4,2.5-1.1,3.7c-0.7,1.1-1.8,2-3.2,2.7c-1.4,0.6-3,1-4.7,1c-2.2,0-4-0.3-5.5-1c-1.5-0.6-2.7-1.6-3.5-2.9
				C366.5,136.9,366.1,135.4,366,133.8z"/>
		</g>
	</g>
</g>
</svg>
