<svg width="160" height="25" viewBox="0 0 160 25" fill="none" xmlns="http://www.w3.org/2000/svg">
<path d="M154.115 19.3374C151.056 19.3374 148.932 17.6633 148.932 14.1543V1.88867H151.99V6.04159H158.525V8.8102H151.99V14.1543C151.99 15.8283 152.859 16.5044 154.115 16.5044C155.37 16.5044 156.239 15.8605 156.239 14.1543V13.8323H159.298V14.1543C159.298 17.6311 157.205 19.3374 154.115 19.3374Z" fill="white"/>
<path fill-rule="evenodd" clip-rule="evenodd" d="M148.73 1.6875H152.191V5.84042H158.726V9.01144H152.191V14.1543C152.191 14.9582 152.4 15.4871 152.725 15.8156C153.049 16.1439 153.522 16.3032 154.115 16.3032C154.71 16.3032 155.182 16.1507 155.506 15.8269C155.829 15.5032 156.038 14.9754 156.038 14.1543V13.6312H159.499V14.1543C159.499 15.9338 158.962 17.2879 158.004 18.1958C157.047 19.1019 155.696 19.5386 154.115 19.5386C152.55 19.5386 151.2 19.1102 150.239 18.2085C149.275 17.3046 148.73 15.9504 148.73 14.1543V1.6875ZM149.133 2.08991V14.1543C149.133 15.8673 149.65 17.1046 150.514 17.915C151.38 18.7275 152.621 19.1362 154.115 19.1362C155.624 19.1362 156.865 18.7198 157.727 17.9036C158.587 17.0892 159.097 15.8516 159.097 14.1543V14.0336H156.441V14.1543C156.441 15.0395 156.215 15.6867 155.79 16.1115C155.366 16.5362 154.775 16.7056 154.115 16.7056C153.452 16.7056 152.862 16.5268 152.439 16.0986C152.015 15.6706 151.789 15.0244 151.789 14.1543V8.60903H158.324V6.24283H151.789V2.08991H149.133Z" fill="white"/>
<path d="M140.143 16.5047C142.365 16.5047 143.846 14.9273 143.846 12.7059C143.846 10.4846 142.365 8.87496 140.143 8.87496C137.922 8.87496 136.409 10.4524 136.409 12.7059C136.409 14.8951 137.922 16.5047 140.143 16.5047ZM140.143 6.00977C144.135 6.00977 146.936 8.84276 146.936 12.6738C146.936 16.5047 144.103 19.3377 140.143 19.3377C136.151 19.3377 133.318 16.5047 133.318 12.6738C133.318 8.84276 136.151 6.00977 140.143 6.00977Z" fill="white"/>
<path fill-rule="evenodd" clip-rule="evenodd" d="M140.143 6.21101C136.259 6.21101 133.52 8.9571 133.52 12.6738C133.52 16.3905 136.259 19.1366 140.143 19.1366C143.995 19.1366 146.735 16.3911 146.735 12.6738C146.735 8.95584 144.026 6.21101 140.143 6.21101ZM133.117 12.6738C133.117 8.7285 136.043 5.80859 140.143 5.80859C144.244 5.80859 147.137 8.72976 147.137 12.6738C147.137 16.6184 144.212 19.539 140.143 19.539C136.043 19.539 133.117 16.6191 133.117 12.6738ZM137.299 9.80531C137.996 9.0867 138.983 8.67379 140.143 8.67379C141.305 8.67379 142.284 9.09574 142.973 9.8187C143.661 10.5407 144.047 11.5502 144.047 12.706C144.047 13.8619 143.661 14.8638 142.972 15.578C142.283 16.2929 141.303 16.706 140.143 16.706C138.982 16.706 137.995 16.2843 137.299 15.5664C136.603 14.8492 136.208 13.8476 136.208 12.706C136.208 11.5335 136.602 10.5234 137.299 9.80531ZM137.588 10.0855C136.972 10.7196 136.61 11.625 136.61 12.706C136.61 13.7535 136.972 14.6513 137.588 15.2862C138.203 15.9205 139.083 16.3036 140.143 16.3036C141.205 16.3036 142.076 15.9279 142.683 15.2987C143.29 14.6688 143.644 13.7714 143.644 12.706C143.644 11.6404 143.29 10.7344 142.682 10.0963C142.075 9.45908 141.203 9.0762 140.143 9.0762C139.082 9.0762 138.202 9.45202 137.588 10.0855Z" fill="white"/>
<path d="M121.375 7.00726C122.405 6.39559 123.693 6.04146 125.077 6.04146C129.069 6.04146 131.87 8.87446 131.87 12.7054C131.87 16.5364 129.037 19.3694 125.077 19.3694C121.085 19.3694 118.252 16.5364 118.252 12.7054C118.252 12.6733 118.252 12.6411 118.252 12.5767C118.252 8.64911 118.252 4.75374 118.252 0.826172C119.282 0.826172 120.312 0.826172 121.342 0.826172C121.375 2.88653 121.375 4.9469 121.375 7.00726ZM125.238 16.5042C127.395 16.4399 128.811 14.8624 128.811 12.7054C128.811 10.5163 127.395 8.97104 125.238 8.90666C125.173 8.90666 125.109 8.90666 125.045 8.90666C125.013 8.90666 124.98 8.90666 124.948 8.90666H124.916C124.819 8.90666 124.723 8.90666 124.626 8.93885C122.662 9.13201 121.375 10.6451 121.375 12.7376C121.375 14.9268 122.791 16.472 124.948 16.5364C124.98 16.5364 125.013 16.5364 125.045 16.5364C125.045 16.5364 125.077 16.5364 125.109 16.5364C125.109 16.5042 125.173 16.5042 125.238 16.5042Z" fill="white"/>
<path fill-rule="evenodd" clip-rule="evenodd" d="M118.051 0.625H121.541L121.544 0.823064C121.574 2.771 121.576 4.71871 121.576 6.66485C122.583 6.13844 123.791 5.84029 125.077 5.84029C129.178 5.84029 132.071 8.76146 132.071 12.7055C132.071 16.6501 129.145 19.5707 125.077 19.5707C120.977 19.5707 118.051 16.6508 118.051 12.7055V0.625ZM118.453 1.02741V12.7053C118.453 16.422 121.193 19.1683 125.077 19.1683C128.928 19.1683 131.668 16.4228 131.668 12.7055C131.668 8.98754 128.96 6.24271 125.077 6.24271C123.726 6.24271 122.474 6.58839 121.477 7.1803L121.174 7.36076V7.00729C121.174 5.01276 121.174 3.01994 121.144 1.02741H118.453ZM124.907 8.70548C124.91 8.70548 124.913 8.70548 124.916 8.70548H125.241L125.244 8.70557C126.371 8.73921 127.317 9.16111 127.981 9.87199C128.644 10.5821 129.013 11.567 129.013 12.7055C129.013 13.8284 128.643 14.8128 127.981 15.5265C127.331 16.2269 126.409 16.6546 125.31 16.7029V16.7377H124.945L124.942 16.7376C123.815 16.7039 122.869 16.282 122.206 15.5712C121.542 14.861 121.174 13.8761 121.174 12.7377C121.174 10.5597 122.52 8.95372 124.586 8.74074C124.705 8.70537 124.821 8.70543 124.907 8.70548ZM124.916 9.1079C124.815 9.1079 124.751 9.10949 124.69 9.12977L124.668 9.13691L124.646 9.13912C122.796 9.32113 121.576 10.7379 121.576 12.7377C121.576 13.7884 121.915 14.6707 122.5 15.2965C123.083 15.9211 123.923 16.3039 124.951 16.3353H125.035C125.068 16.3188 125.099 16.3127 125.116 16.3098C125.158 16.3029 125.205 16.303 125.232 16.3031L125.235 16.3031C126.262 16.2717 127.102 15.8817 127.686 15.2527C128.271 14.6223 128.61 13.7395 128.61 12.7055C128.61 11.6548 128.271 10.7725 127.686 10.1466C127.103 9.52208 126.264 9.13929 125.235 9.1079H124.916Z" fill="white"/>
<path d="M109.463 16.5047C111.684 16.5047 113.165 14.9273 113.165 12.7059C113.165 10.4846 111.684 8.87496 109.463 8.87496C107.242 8.87496 105.729 10.4524 105.729 12.7059C105.729 14.8951 107.242 16.5047 109.463 16.5047ZM109.463 6.00977C113.455 6.00977 116.288 8.84276 116.288 12.6738C116.288 16.5047 113.455 19.3377 109.463 19.3377C105.471 19.3377 102.67 16.5047 102.67 12.6738C102.638 8.84276 105.471 6.00977 109.463 6.00977Z" fill="white"/>
<path fill-rule="evenodd" clip-rule="evenodd" d="M109.463 6.21101C105.579 6.21101 102.84 8.95703 102.871 12.6721L102.871 12.6738C102.871 16.3917 105.58 19.1366 109.463 19.1366C113.347 19.1366 116.087 16.3905 116.087 12.6738C116.087 8.9571 113.347 6.21101 109.463 6.21101ZM102.469 12.6746C102.436 8.72815 105.364 5.80859 109.463 5.80859C113.563 5.80859 116.489 8.7285 116.489 12.6738C116.489 16.6191 113.563 19.539 109.463 19.539C105.362 19.539 102.469 16.6182 102.469 12.6746ZM106.618 9.8053C107.316 9.0867 108.303 8.67379 109.463 8.67379C110.624 8.67379 111.604 9.09574 112.293 9.8187C112.981 10.5407 113.366 11.5502 113.366 12.706C113.366 13.8619 112.98 14.8638 112.292 15.578C111.603 16.2929 110.623 16.706 109.463 16.706C108.302 16.706 107.315 16.2843 106.618 15.5664C105.923 14.8492 105.527 13.8476 105.527 12.706C105.527 11.5335 105.922 10.5234 106.618 9.8053ZM106.907 10.0855C106.292 10.7196 105.93 11.625 105.93 12.706C105.93 13.7535 106.291 14.6513 106.907 15.2862C107.523 15.9205 108.403 16.3036 109.463 16.3036C110.524 16.3036 111.396 15.9279 112.002 15.2987C112.609 14.6688 112.964 13.7714 112.964 12.706C112.964 11.6404 112.609 10.7344 112.001 10.0963C111.394 9.45908 110.523 9.0762 109.463 9.0762C108.402 9.0762 107.522 9.45202 106.907 10.0855Z" fill="white"/>
<path d="M101.511 11.7723H98.4848V11.6436C98.4848 9.58321 97.4546 8.84276 95.9737 8.84276C94.4928 8.84276 93.4626 9.58321 93.4626 11.6436V19.3377H90.4043V11.6436C90.4043 7.84478 92.6578 6.00977 95.9737 6.00977C99.2574 6.00977 101.511 7.84478 101.511 11.708V11.7723Z" fill="white"/>
<path fill-rule="evenodd" clip-rule="evenodd" d="M92.0845 7.54769C91.1559 8.43425 90.6055 9.7845 90.6055 11.6436V19.1366H93.2615V11.6436C93.2615 10.5824 93.5269 9.82199 94.0206 9.32829C94.5143 8.83459 95.2023 8.64159 95.9738 8.64159C96.7452 8.64159 97.4332 8.83459 97.9269 9.32829C98.4093 9.81068 98.6737 10.5477 98.6856 11.5712H101.309C101.283 9.7497 100.736 8.42749 99.8339 7.55485C98.9077 6.65923 97.5794 6.21101 95.9738 6.21101C94.3515 6.21101 93.0148 6.65953 92.0845 7.54769ZM91.8066 7.25662C92.8321 6.27758 94.2801 5.80859 95.9738 5.80859C97.6518 5.80859 99.0922 6.27788 100.114 7.26556C101.136 8.25452 101.712 9.73706 101.712 11.708V11.9736H98.2836V11.6436C98.2836 10.6444 98.034 10.0045 97.6423 9.61284C97.2507 9.22123 96.6832 9.04401 95.9738 9.04401C95.2643 9.04401 94.6968 9.22123 94.3052 9.61284C93.9135 10.0045 93.6639 10.6444 93.6639 11.6436V19.539H90.2031V11.6436C90.2031 9.70391 90.7795 8.23726 91.8066 7.25662Z" fill="white"/>
<path d="M81.6163 16.5047C83.8376 16.5047 85.3185 14.9273 85.3185 12.7059C85.3185 10.4846 83.8376 8.87496 81.6163 8.87496C79.3949 8.87496 77.8819 10.4524 77.8819 12.7059C77.8819 14.8951 79.3949 16.5047 81.6163 16.5047ZM81.6163 6.00977C85.6082 6.00977 88.4412 8.84276 88.4412 12.6738C88.4412 16.5047 85.6404 19.3377 81.6163 19.3377C77.6243 19.3377 74.8235 16.5047 74.8235 12.6738C74.7913 8.84276 77.6243 6.00977 81.6163 6.00977Z" fill="white"/>
<path fill-rule="evenodd" clip-rule="evenodd" d="M81.6163 6.21101C77.732 6.21101 74.9935 8.95703 75.0247 12.6721L75.0248 12.6738C75.0248 16.3917 77.7336 19.1366 81.6163 19.1366C85.5319 19.1366 88.2401 16.3911 88.2401 12.6738C88.2401 8.9571 85.5003 6.21101 81.6163 6.21101ZM74.6223 12.6746C74.5896 8.72815 77.5171 5.80859 81.6163 5.80859C85.7162 5.80859 88.6425 8.7285 88.6425 12.6738C88.6425 16.6184 85.749 19.539 81.6163 19.539C77.5154 19.539 74.6228 16.6182 74.6223 12.6746ZM78.7717 9.8053C79.4689 9.0867 80.4563 8.67379 81.6163 8.67379C82.7777 8.67379 83.7574 9.09574 84.4461 9.8187C85.1339 10.5407 85.5197 11.5502 85.5197 12.706C85.5197 13.8619 85.1338 14.8638 84.4453 15.578C83.756 16.2929 82.7765 16.706 81.6163 16.706C80.4552 16.706 79.4682 16.2843 78.7717 15.5664C78.0758 14.8492 77.6807 13.8476 77.6807 12.706C77.6807 11.5335 78.075 10.5234 78.7717 9.8053ZM79.0605 10.0855C78.4453 10.7196 78.0831 11.625 78.0831 12.706C78.0831 13.7535 78.4445 14.6513 79.0605 15.2862C79.6759 15.9205 80.5561 16.3036 81.6163 16.3036C82.6775 16.3036 83.549 15.9279 84.1556 15.2987C84.7628 14.6688 85.1173 13.7714 85.1173 12.706C85.1173 11.6404 84.7627 10.7344 84.1547 10.0963C83.5477 9.45908 82.6762 9.0762 81.6163 9.0762C80.555 9.0762 79.6752 9.45202 79.0605 10.0855Z" fill="white"/>
<path d="M72.3444 0.826172H69.2539V19.3372H72.3444V0.826172Z" fill="white"/>
<path fill-rule="evenodd" clip-rule="evenodd" d="M69.0527 0.625H72.5457V19.5385H69.0527V0.625ZM69.4551 1.02741V19.1361H72.1433V1.02741H69.4551Z" fill="white"/>
<path d="M60.1111 16.5047C62.3324 16.5047 63.8133 14.9273 63.8133 12.7059C63.8133 10.4846 62.3324 8.87496 60.1111 8.87496C57.8898 8.87496 56.3767 10.4524 56.3767 12.7059C56.3767 14.8951 57.8898 16.5047 60.1111 16.5047ZM60.1111 6.00977C64.1031 6.00977 66.9039 8.84276 66.9039 12.6738C66.9039 16.5047 64.1031 19.3377 60.1111 19.3377C58.6946 19.3377 57.4391 18.9836 56.4089 18.3719C56.4089 20.4001 56.4089 22.3961 56.4089 24.4243C55.3787 24.4243 54.3485 24.4243 53.3184 24.4243C53.3184 20.5611 53.3184 16.6979 53.3184 12.8025C53.3184 12.7703 53.3184 12.7381 53.3184 12.6738C53.3184 8.84276 56.1192 6.00977 60.1111 6.00977Z" fill="white"/>
<path fill-rule="evenodd" clip-rule="evenodd" d="M60.1111 6.21101C56.2284 6.21101 53.5196 8.95584 53.5196 12.6738V24.2231H56.2077V18.0185L56.5117 18.199C57.5089 18.7911 58.7286 19.1366 60.1111 19.1366C63.9939 19.1366 66.7027 16.3917 66.7027 12.6738C66.7027 8.95584 63.9939 6.21101 60.1111 6.21101ZM53.1172 12.6738C53.1172 8.72976 56.01 5.80859 60.1111 5.80859C64.2123 5.80859 67.1051 8.72976 67.1051 12.6738C67.1051 16.6178 64.2123 19.539 60.1111 19.539C58.7962 19.539 57.612 19.2408 56.6101 18.7148V24.6255H53.1172V12.6738ZM57.2665 9.80531C57.9638 9.0867 58.9511 8.67379 60.1111 8.67379C61.2725 8.67379 62.2522 9.09574 62.9409 9.8187C63.6288 10.5407 64.0146 11.5502 64.0146 12.706C64.0146 13.8619 63.6286 14.8638 62.9401 15.578C62.2509 16.2929 61.2713 16.706 60.1111 16.706C58.95 16.706 57.963 16.2843 57.2665 15.5664C56.5707 14.8492 56.1755 13.8476 56.1755 12.706C56.1755 11.5335 56.5698 10.5234 57.2665 9.80531ZM57.5554 10.0855C56.9402 10.7196 56.578 11.625 56.578 12.706C56.578 13.7535 56.9393 14.6513 57.5554 15.2862C58.1707 15.9205 59.051 16.3036 60.1111 16.3036C61.1723 16.3036 62.0439 15.9279 62.6504 15.2987C63.2577 14.6688 63.6122 13.7714 63.6122 12.706C63.6122 11.6404 63.2575 10.7344 62.6496 10.0963C62.0425 9.45908 61.1711 9.0762 60.1111 9.0762C59.0498 9.0762 58.17 9.45202 57.5554 10.0855Z" fill="white"/>
<path d="M51.7083 6.00977L46.9759 12.6738L51.7083 19.3377H48.0061L44.7868 14.2834L41.4709 19.3377H37.8975L42.5655 12.6738L37.8975 6.00977H41.4709L44.7868 11.0319L48.0061 6.00977H51.7083Z" fill="white"/>
<path fill-rule="evenodd" clip-rule="evenodd" d="M37.5107 5.80859H41.579L44.7842 10.663L47.896 5.80859H52.0979L47.2226 12.6738L52.0979 19.539H47.8956L44.7842 14.6541L41.5794 19.539H37.5107L42.3197 12.6738L37.5107 5.80859ZM38.2839 6.21101L42.811 12.6738L38.2839 19.1366H41.3621L44.7892 13.9128L48.1164 19.1366H51.3185L46.729 12.6738L51.3185 6.21101H48.116L44.7892 11.4009L41.3625 6.21101H38.2839Z" fill="white"/>
<path d="M25.0521 11.9654C25.0843 12.1908 25.1165 12.4483 25.1165 12.6737C25.1165 12.9312 25.0843 13.1566 25.0521 13.3819C25.0199 13.5751 24.9555 13.7683 24.8911 13.9614C24.8268 14.1224 24.7624 14.2833 24.6336 14.4121C24.537 14.5409 24.4404 14.6697 24.3117 14.7984C24.1829 14.9272 24.0541 15.0238 23.9254 15.1204C23.7644 15.2169 23.6034 15.3135 23.4103 15.3779C23.2171 15.4745 22.9918 15.5067 22.7664 15.5711C22.5089 15.6033 22.2191 15.6355 21.9616 15.6355C21.704 15.6355 21.4143 15.6033 21.1567 15.5711C20.9314 15.5389 20.7382 15.4745 20.5129 15.3779C20.3519 15.3135 20.1588 15.2169 19.9978 15.1204C19.869 15.0238 19.7402 14.9272 19.6115 14.7984C19.4827 14.7019 19.3861 14.5731 19.2895 14.4121C19.193 14.2511 19.1286 14.1224 19.032 13.9614C18.9676 13.7683 18.9032 13.5751 18.871 13.3819C18.8388 13.1566 18.8066 12.899 18.8066 12.6737C18.8066 12.4161 18.8388 12.1908 18.871 11.9654C18.9032 11.7723 18.9676 11.5791 19.032 11.386C19.0964 11.225 19.193 11.064 19.2895 10.9353C19.3861 10.8065 19.4827 10.6777 19.6115 10.5489C19.7402 10.4202 19.869 10.3236 19.9978 10.227C20.1588 10.1304 20.3197 10.0338 20.5129 9.96946C20.7382 9.87288 20.9314 9.84069 21.1567 9.7763C21.4143 9.71191 21.704 9.71191 21.9616 9.71191C22.2191 9.71191 22.5089 9.74411 22.7664 9.7763C22.9918 9.80849 23.2171 9.87288 23.4103 9.96946C23.5712 10.0338 23.7644 10.1304 23.9254 10.227C24.0541 10.3236 24.1829 10.4202 24.3117 10.5489C24.4404 10.6777 24.537 10.8065 24.6336 10.9353C24.7302 11.064 24.8268 11.225 24.8911 11.386C24.9555 11.5791 25.0199 11.7723 25.0521 11.9654Z" fill="white"/>
<path fill-rule="evenodd" clip-rule="evenodd" d="M21.1991 9.93167C21.1228 9.95341 21.0542 9.9708 20.9894 9.98722C20.847 10.0233 20.723 10.0547 20.5771 10.1172L20.5709 10.1199L20.5646 10.122C20.3932 10.1791 20.2483 10.2647 20.0885 10.3606C19.9616 10.4558 19.8437 10.545 19.7261 10.6626C19.6065 10.7822 19.5162 10.9022 19.4191 11.0317C19.3302 11.1503 19.2422 11.2973 19.184 11.4413C19.1196 11.6344 19.0605 11.8134 19.0309 11.9899C18.9987 12.2154 18.9684 12.4296 18.9684 12.6735C18.9684 12.8857 18.9988 13.1325 19.0309 13.3571C19.0599 13.53 19.1172 13.7052 19.18 13.8937C19.2256 13.9704 19.2643 14.0401 19.3018 14.1076L19.3023 14.1084C19.3426 14.181 19.3816 14.2513 19.4284 14.3291C19.5208 14.4832 19.6046 14.5913 19.7089 14.6695L19.718 14.6764L19.7261 14.6844C19.8436 14.802 19.9616 14.8912 20.0884 14.9864C20.2412 15.0775 20.4234 15.1683 20.5735 15.2283L20.5771 15.2297C20.7945 15.3229 20.973 15.3818 21.1789 15.4114C21.4361 15.4435 21.7164 15.4743 21.9624 15.4743C22.205 15.4743 22.4809 15.4443 22.7351 15.4127C22.8032 15.3936 22.8756 15.3761 22.9431 15.3597C22.9849 15.3496 23.0248 15.3399 23.0608 15.3306C23.166 15.3033 23.2577 15.2745 23.3391 15.2338L23.3493 15.2287L23.3602 15.225C23.5316 15.1679 23.6764 15.0823 23.8362 14.9864C23.9632 14.8912 24.0811 14.802 24.1987 14.6844C24.3183 14.5648 24.4085 14.4448 24.5056 14.3154L24.5125 14.3062L24.5206 14.2981C24.6215 14.1972 24.6753 14.0693 24.7408 13.9058C24.8051 13.7127 24.8642 13.5337 24.8938 13.3571C24.9261 13.1316 24.9563 12.9174 24.9563 12.6735C24.9563 12.4613 24.9259 12.2146 24.8938 11.9899C24.8642 11.8134 24.8052 11.6344 24.7408 11.4413C24.6826 11.2973 24.5946 11.1503 24.5056 11.0317C24.4085 10.9022 24.3183 10.7822 24.1987 10.6626C24.0811 10.5451 23.9632 10.4558 23.8363 10.3607C23.6835 10.2695 23.5013 10.1788 23.3513 10.1187L23.3451 10.1163L23.3391 10.1133C23.1645 10.026 22.9569 9.96596 22.7458 9.93568C22.4886 9.90355 22.2084 9.87271 21.9624 9.87271C21.7016 9.87271 21.4334 9.87357 21.1991 9.93167ZM21.9533 9.55078L21.9624 9.55078C22.231 9.55078 22.5297 9.58422 22.7872 9.61641L22.79 9.61676C23.0269 9.6506 23.2671 9.71833 23.477 9.82231C23.6453 9.89009 23.8433 9.98939 24.009 10.0888L24.0161 10.0931L24.0257 10.1003C24.1529 10.1957 24.2894 10.2981 24.4263 10.4349C24.5632 10.5718 24.6655 10.7083 24.761 10.8355L24.7632 10.8385C24.8665 10.9763 24.9708 11.1495 25.0414 11.326L25.0432 11.3304L25.0466 11.3408C25.1097 11.5299 25.1774 11.7331 25.2117 11.9388L25.2123 11.9425C25.2445 12.168 25.2783 12.4356 25.2783 12.6735C25.2783 12.9425 25.2447 13.1774 25.2128 13.4008L25.2117 13.4082C25.1775 13.6139 25.1097 13.8171 25.0466 14.0062L25.0432 14.0166L25.0372 14.0315C24.9766 14.1831 24.9033 14.3665 24.7567 14.5172C24.6625 14.6428 24.5611 14.7773 24.4263 14.9121C24.2894 15.049 24.1529 15.1513 24.0257 15.2467L24.0161 15.254L24.0036 15.2614C23.8484 15.3546 23.6779 15.4569 23.4727 15.5268C23.364 15.5798 23.2503 15.614 23.1416 15.6422C23.0942 15.6545 23.05 15.6652 23.0069 15.6755C22.9416 15.6913 22.8789 15.7064 22.8114 15.7257L22.7995 15.7291L22.7872 15.7306C22.5297 15.7628 22.231 15.7963 21.9624 15.7963C21.6938 15.7963 21.3951 15.7628 21.1376 15.7306L21.1348 15.7303C20.8912 15.6955 20.6842 15.6259 20.4521 15.5265C20.2829 15.4587 20.0829 15.3585 19.9158 15.2582L19.9087 15.254L19.8991 15.2468C19.7743 15.1532 19.6406 15.0529 19.5064 14.92C19.358 14.806 19.251 14.6592 19.1523 14.4948C19.1026 14.412 19.0613 14.3376 19.0213 14.2656L19.0209 14.2648C18.9805 14.1922 18.9415 14.1219 18.8948 14.0441L18.8857 14.0289L18.8781 14.0062C18.8151 13.8171 18.7473 13.6139 18.7131 13.4082L18.7124 13.4045C18.6802 13.179 18.6465 12.9114 18.6465 12.6735C18.6465 12.4045 18.68 12.1696 18.712 11.9462L18.713 11.9388C18.7473 11.7331 18.8151 11.5299 18.8781 11.3408L18.8816 11.3304L18.8833 11.326C18.954 11.1495 19.0583 10.9763 19.1616 10.8385L19.1638 10.8355C19.2592 10.7083 19.3616 10.5718 19.4985 10.4349C19.6353 10.2981 19.7718 10.1957 19.8991 10.1003L19.9087 10.0931L19.9212 10.0856C20.0774 9.99182 20.2493 9.88869 20.4564 9.81873C20.6242 9.74746 20.7833 9.70705 20.9347 9.66858C20.9955 9.65315 21.055 9.63803 21.1133 9.62136L21.1159 9.62062L21.1185 9.61997C21.3954 9.55076 21.7016 9.55077 21.9533 9.55078Z" fill="white"/>
<path d="M12.4007 11.9654C12.4329 12.1908 12.4651 12.4483 12.4651 12.6737C12.4651 12.9312 12.4329 13.1566 12.4007 13.3819C12.3686 13.5751 12.3042 13.7683 12.2398 13.9614C12.1754 14.1224 12.0788 14.2833 11.9822 14.4121C11.8857 14.5409 11.7891 14.6697 11.6603 14.7984C11.5315 14.9272 11.4028 15.0238 11.274 15.1204C11.113 15.2169 10.9521 15.3135 10.7589 15.3779C10.5657 15.4745 10.3404 15.5067 10.115 15.5711C9.85749 15.6033 9.56775 15.6355 9.3102 15.6355C9.05266 15.6355 8.76292 15.6033 8.50538 15.5711C8.28002 15.5389 8.05467 15.4745 7.86151 15.3779C7.70055 15.3135 7.50739 15.2169 7.34642 15.1204C7.21765 15.0238 7.08888 14.9272 6.9601 14.7984C6.83133 14.7019 6.73475 14.5731 6.63817 14.4121C6.54159 14.2511 6.47721 14.1224 6.38063 13.9614C6.31624 13.7683 6.25185 13.5751 6.21966 13.3819C6.18747 13.1566 6.15527 12.899 6.15527 12.6737C6.15527 12.4161 6.18747 12.1908 6.21966 11.9654C6.25185 11.7723 6.31624 11.5791 6.38063 11.386C6.44501 11.225 6.54159 11.064 6.63817 10.9353C6.73475 10.8065 6.83133 10.6777 6.9601 10.5489C7.08888 10.4202 7.21765 10.3236 7.34642 10.227C7.50739 10.1304 7.66835 10.0338 7.86151 9.96946C8.05467 9.87288 8.28002 9.84069 8.50538 9.7763C8.76292 9.71191 9.05266 9.71191 9.3102 9.71191C9.59994 9.71191 9.85749 9.74411 10.115 9.7763C10.3404 9.80849 10.5657 9.87288 10.7589 9.96946C10.9199 10.0338 11.113 10.1304 11.274 10.227C11.4028 10.3236 11.5315 10.4202 11.6603 10.5489C11.7891 10.6777 11.8857 10.8065 11.9822 10.9353C12.0788 11.064 12.1432 11.225 12.2398 11.386C12.3042 11.5791 12.3686 11.7723 12.4007 11.9654Z" fill="white"/>
<path fill-rule="evenodd" clip-rule="evenodd" d="M8.54674 9.93167C8.47589 9.95184 8.39999 9.97021 8.32925 9.98735C8.28755 9.99745 8.24763 10.0071 8.2116 10.0165C8.10641 10.0437 8.01471 10.0726 7.93333 10.1133L7.9231 10.1184L7.91225 10.122C7.74083 10.1791 7.596 10.2647 7.43619 10.3606C7.30926 10.4558 7.19131 10.545 7.07376 10.6626C6.95415 10.7822 6.86387 10.9022 6.76678 11.0317C6.67781 11.1503 6.58981 11.2973 6.53163 11.4413C6.46726 11.6344 6.40819 11.8134 6.37857 11.9899C6.34636 12.2154 6.31607 12.4296 6.31607 12.6735C6.31607 12.8857 6.3465 13.1325 6.37857 13.3571C6.40757 13.53 6.46482 13.7052 6.52763 13.8937C6.57327 13.9704 6.61197 14.0401 6.6495 14.1076L6.64994 14.1084C6.69028 14.181 6.7293 14.2513 6.77603 14.3291C6.86846 14.4832 6.95223 14.5913 7.05651 14.6695L7.06567 14.6764L7.07376 14.6844C7.19128 14.802 7.30921 14.8912 7.4361 14.9864C7.58889 15.0775 7.77106 15.1683 7.92113 15.2283L7.92734 15.2308L7.93333 15.2338C8.1079 15.3211 8.31552 15.3811 8.52658 15.4114C8.78377 15.4435 9.06402 15.4743 9.31004 15.4743C9.55265 15.4743 9.82855 15.4443 10.0828 15.4127C10.1509 15.3936 10.2232 15.3761 10.2908 15.3597C10.3325 15.3496 10.3724 15.3399 10.4085 15.3306C10.5137 15.3033 10.6054 15.2745 10.6867 15.2338L10.697 15.2287L10.7078 15.225C10.8792 15.1679 11.0241 15.0823 11.1839 14.9864C11.3108 14.8912 11.4288 14.802 11.5463 14.6844C11.6659 14.5648 11.7562 14.4448 11.8533 14.3154C11.9423 14.1967 12.0303 14.0498 12.0884 13.9057C12.1528 13.7126 12.2119 13.5336 12.2415 13.3571C12.2737 13.1316 12.304 12.9174 12.304 12.6735C12.304 12.4613 12.2736 12.2146 12.2415 11.9899C12.2125 11.817 12.1552 11.6417 12.0924 11.4531C12.0551 11.3897 12.0219 11.326 11.992 11.2685C11.9839 11.253 11.976 11.2379 11.9684 11.2233C11.9286 11.1477 11.8933 11.0851 11.8533 11.0317C11.7562 10.9022 11.6659 10.7822 11.5463 10.6626C11.4288 10.5451 11.3109 10.4558 11.184 10.3607C11.0312 10.2695 10.849 10.1788 10.6989 10.1187L10.6927 10.1163L10.6867 10.1133C10.5122 10.026 10.3045 9.96596 10.0935 9.93568C9.8356 9.90344 9.58787 9.87271 9.31004 9.87271C9.04924 9.87271 8.78102 9.87357 8.54674 9.93167ZM9.30092 9.55078L9.31004 9.55078C9.60981 9.55078 9.87571 9.58402 10.1313 9.61597L10.1376 9.61676C10.3745 9.6506 10.6147 9.71833 10.8247 9.82231C10.9929 9.89009 11.1909 9.98939 11.3566 10.0888L11.3638 10.0931L11.3734 10.1003C11.5006 10.1957 11.6371 10.2981 11.774 10.4349C11.9108 10.5718 12.0132 10.7083 12.1086 10.8355L12.1108 10.8385C12.1674 10.9139 12.2126 10.9961 12.2533 11.0734C12.2623 11.0905 12.2711 11.1074 12.2797 11.124C12.3117 11.1853 12.3421 11.2437 12.3776 11.303L12.3867 11.3181L12.3943 11.3408C12.4573 11.5299 12.5251 11.7331 12.5594 11.9388L12.56 11.9425C12.5922 12.168 12.6259 12.4356 12.6259 12.6735C12.6259 12.9425 12.5924 13.1774 12.5605 13.4008L12.5594 13.4082C12.5251 13.6139 12.4573 13.8171 12.3943 14.0062L12.3908 14.0166L12.3891 14.021C12.3185 14.1976 12.2142 14.3708 12.1108 14.5085L12.1086 14.5115C12.0132 14.6387 11.9108 14.7752 11.774 14.9121C11.6371 15.049 11.5006 15.1513 11.3734 15.2467L11.3638 15.254L11.3513 15.2614C11.1961 15.3546 11.0255 15.4569 10.8203 15.5268C10.7117 15.5798 10.5979 15.614 10.4893 15.6422C10.4418 15.6545 10.3976 15.6652 10.3546 15.6755C10.2893 15.6913 10.2266 15.7064 10.1591 15.7257L10.1472 15.7291L10.1348 15.7306C9.87732 15.7628 9.57866 15.7963 9.31004 15.7963C9.04142 15.7963 8.74276 15.7628 8.48524 15.7306L8.48244 15.7303C8.24555 15.6964 8.00534 15.6287 7.7954 15.5247C7.62715 15.4569 7.42914 15.3576 7.26344 15.2582L7.25632 15.254L7.24671 15.2467C7.12192 15.1532 6.98824 15.0529 6.85402 14.92C6.70563 14.806 6.59865 14.6592 6.49998 14.4948C6.45031 14.412 6.40897 14.3376 6.36896 14.2656L6.36852 14.2648C6.32819 14.1922 6.28916 14.1219 6.24243 14.0441L6.23334 14.0289L6.22578 14.0062C6.16274 13.8171 6.09499 13.6139 6.06072 13.4082L6.0601 13.4045C6.02788 13.179 5.99414 12.9114 5.99414 12.6735C5.99414 12.4045 6.0277 12.1696 6.05961 11.9463L6.06067 11.9388C6.09495 11.7331 6.16274 11.5299 6.22578 11.3408L6.22925 11.3304L6.23101 11.326C6.30162 11.1495 6.40591 10.9763 6.50923 10.8385L6.51145 10.8355C6.60688 10.7083 6.70924 10.5718 6.84612 10.4349C6.98299 10.2981 7.11947 10.1957 7.24671 10.1003L7.25632 10.0931L7.2688 10.0856C7.42398 9.99248 7.59455 9.89013 7.79975 9.82019C7.90841 9.76724 8.02216 9.73299 8.13081 9.70483C8.17824 9.69253 8.22242 9.68188 8.26547 9.6715C8.33077 9.65577 8.39347 9.64065 8.46099 9.62136L8.46357 9.62062L8.46617 9.61997C8.74303 9.55076 9.04925 9.55077 9.30092 9.55078Z" fill="white"/>
<path d="M21.994 4.68945C26.7908 4.68945 30.1711 8.06974 30.1711 12.7056C30.1711 17.3092 26.7908 20.7216 21.994 20.7216C21.9618 20.7216 21.9296 20.7216 21.8974 20.7216C17.7445 20.7216 13.6238 20.7216 9.47088 20.7216C9.43868 20.7216 9.40649 20.7216 9.3421 20.7216C4.54532 20.7216 1.16504 17.3414 1.16504 12.7056C1.16504 8.06974 4.54532 4.68945 9.3421 4.68945C9.3743 4.68945 9.40649 4.68945 9.47088 4.68945C13.6238 4.68945 17.7767 4.68945 21.8974 4.68945C21.8974 4.68945 21.9296 4.68945 21.994 4.68945ZM27.1127 12.6734C27.1127 12.287 27.0805 11.9329 27.0161 11.5788C26.9518 11.2569 26.8552 10.9349 26.7264 10.613C26.5976 10.3233 26.4689 10.0335 26.3079 9.80817C26.1469 9.55062 25.9538 9.32527 25.7284 9.13211C25.5031 8.90676 25.2777 8.7136 25.0202 8.55263C24.7626 8.39167 24.4729 8.2307 24.151 8.10193C23.829 7.97316 23.4749 7.87658 23.1208 7.81219C22.7345 7.7478 22.3481 7.71561 21.9296 7.71561C21.5433 7.71561 21.1248 7.7478 20.7385 7.81219C20.3844 7.87658 20.0624 7.97316 19.7405 8.10193C19.4508 8.2307 19.161 8.35947 18.8713 8.55263C18.6137 8.7136 18.3884 8.90676 18.163 9.13211C17.9377 9.32527 17.7445 9.58281 17.5836 9.80817C17.4226 10.0657 17.2616 10.3554 17.165 10.613C17.0363 10.9349 16.9397 11.2569 16.8753 11.5788C16.8109 11.9329 16.7787 12.3192 16.7787 12.6734C16.7787 13.0275 16.8109 13.4138 16.8753 13.7679C16.9397 14.0899 17.0363 14.4118 17.165 14.7337C17.2938 15.0235 17.4226 15.3132 17.5836 15.5385C17.7445 15.7961 17.9377 16.0214 18.163 16.2146C18.3884 16.44 18.6137 16.6009 18.8713 16.7941C19.1288 16.955 19.4186 17.116 19.7405 17.2448C20.0624 17.3736 20.4166 17.4701 20.7385 17.5345C21.1248 17.5989 21.5111 17.6311 21.9296 17.6311C22.3159 17.6311 22.7345 17.5989 23.1208 17.5345C23.4749 17.4701 23.7968 17.3736 24.151 17.2448C24.4407 17.116 24.7304 16.9872 25.0202 16.7941C25.2777 16.6331 25.5031 16.44 25.7284 16.2146C25.9538 15.9893 26.1469 15.7639 26.3079 15.5385C26.4689 15.281 26.6298 14.9913 26.7264 14.7337C26.8552 14.4118 26.9518 14.0899 27.0161 13.7679C27.0805 13.4138 27.1127 13.0597 27.1127 12.6734ZM14.4608 12.6734C14.4608 12.287 14.4286 11.9329 14.3642 11.5788C14.2998 11.2569 14.2033 10.9349 14.0745 10.613C13.9457 10.3233 13.817 10.0335 13.656 9.80817C13.495 9.55062 13.3019 9.32527 13.0765 9.13211C12.8512 8.90676 12.6258 8.7136 12.3683 8.55263C12.1107 8.39167 11.821 8.2307 11.499 8.10193C11.1771 7.97316 10.823 7.87658 10.5011 7.81219C10.1147 7.7478 9.72842 7.71561 9.30991 7.71561C8.92359 7.71561 8.53727 7.7478 8.11876 7.81219C7.76464 7.87658 7.44271 7.97316 7.12077 8.10193C6.83104 8.2307 6.5413 8.35947 6.25156 8.55263C5.99401 8.7136 5.76866 8.90676 5.54331 9.13211C5.31796 9.32527 5.1248 9.58281 4.96383 9.80817C4.80287 10.0657 4.6419 10.3554 4.51313 10.613C4.38436 10.9349 4.28778 11.2569 4.22339 11.5788C4.159 11.9329 4.12681 12.3192 4.12681 12.6734C4.12681 13.0275 4.159 13.4138 4.22339 13.7679C4.28778 14.0899 4.38436 14.4118 4.51313 14.7337C4.6419 15.0235 4.77067 15.3132 4.96383 15.5385C5.1248 15.7961 5.31796 16.0214 5.54331 16.2146C5.76866 16.44 5.99401 16.6009 6.25156 16.7941C6.5091 16.955 6.79884 17.116 7.12077 17.2448C7.44271 17.3736 7.79683 17.4701 8.11876 17.5345C8.50508 17.5989 8.8914 17.6311 9.30991 17.6311C9.69623 17.6311 10.1147 17.5989 10.5011 17.5345C10.8552 17.4701 11.1771 17.3736 11.499 17.2448C11.7888 17.116 12.0785 16.9872 12.3683 16.7941C12.6258 16.6331 12.8512 16.44 13.0765 16.2146C13.3019 15.9893 13.495 15.7639 13.656 15.5385C13.817 15.281 13.9779 14.9913 14.0745 14.7337C14.2033 14.4118 14.2998 14.0899 14.3642 13.7679C14.4286 13.4138 14.4608 13.0597 14.4608 12.6734Z" fill="white"/>
<path fill-rule="evenodd" clip-rule="evenodd" d="M9.34231 4.7299C4.56721 4.7299 1.20548 8.09269 1.20548 12.7058C1.20548 17.3188 4.56721 20.6816 9.34231 20.6816H21.9942C26.7692 20.6816 30.131 17.2867 30.131 12.7058C30.131 8.09269 26.7693 4.7299 21.9942 4.7299H9.34231ZM1.125 12.7058C1.125 8.04718 4.52383 4.64941 9.34231 4.64941H21.9942C26.8127 4.64941 30.2115 8.04718 30.2115 12.7058C30.2115 17.332 26.8128 20.7621 21.9942 20.7621H9.34231C4.52383 20.7621 1.125 17.3643 1.125 12.7058ZM8.11285 7.77262C8.5331 7.70796 8.92148 7.67557 9.31011 7.67557C9.73078 7.67557 10.1193 7.70794 10.5079 7.7727L10.5092 7.77291C10.8329 7.83766 11.1895 7.93488 11.5142 8.06477C11.8391 8.19472 12.131 8.35698 12.3898 8.51871C12.6503 8.68154 12.8777 8.87652 13.1041 9.10276C13.3318 9.29815 13.527 9.52595 13.6897 9.78599C13.8527 10.0145 13.9826 10.3069 14.1104 10.5944L14.1121 10.5982C14.2417 10.9223 14.339 11.2466 14.4039 11.5711L14.404 11.5718C14.4689 11.9284 14.5013 12.2849 14.5013 12.6736C14.5013 13.0622 14.4689 13.4188 14.404 13.7753L14.4039 13.776C14.339 14.1003 14.2418 14.4245 14.1122 14.7484C14.0142 15.0096 13.8517 15.3019 13.6903 15.5601L13.689 15.5622C13.5266 15.7896 13.3319 16.0166 13.1052 16.2433C12.8786 16.4698 12.651 16.6651 12.3903 16.8281C12.0979 17.023 11.8057 17.1528 11.5168 17.2812L11.5142 17.2824C11.19 17.4121 10.8655 17.5094 10.5085 17.5743L10.5079 17.5744C10.1192 17.6392 9.6985 17.6715 9.31011 17.6715C8.88945 17.6715 8.50091 17.6392 8.11235 17.5744L8.11107 17.5742C7.78732 17.5095 7.43075 17.4122 7.10603 17.2824C6.78115 17.1524 6.48921 16.9901 6.23043 16.8284L6.22753 16.8266C6.19862 16.8049 6.17015 16.7835 6.14192 16.7624C5.92002 16.5968 5.71797 16.446 5.51615 16.2444C5.28888 16.0493 5.09399 15.822 4.93151 15.5626C4.73561 15.3331 4.60529 15.0399 4.47791 14.7533L4.47594 14.7489C4.34631 14.4248 4.24903 14.1005 4.18413 13.776L4.18399 13.7753C4.11914 13.4187 4.08677 13.0299 4.08677 12.6736C4.08677 12.3172 4.11915 11.9285 4.184 11.5718L4.18413 11.5711C4.24902 11.2466 4.34633 10.9223 4.47597 10.5983L4.47721 10.5951C4.60652 10.3365 4.76823 10.0457 4.92991 9.78704L4.93123 9.78493C5.09192 9.55997 5.28721 9.29932 5.51615 9.10277C5.74235 8.87667 5.96962 8.68178 6.22994 8.51902C6.52236 8.32414 6.81457 8.19427 7.10345 8.06588L7.10602 8.06474C7.43022 7.93506 7.75476 7.83771 8.11177 7.7728L8.11285 7.77262ZM14.1122 14.7484C14.1122 14.7486 14.1121 14.7487 14.1121 14.7489L14.0747 14.7339L14.1124 14.7481C14.1123 14.7482 14.1123 14.7483 14.1122 14.7484ZM8.12563 7.85208C7.77486 7.9159 7.45589 8.01155 7.13663 8.13921C6.84682 8.26802 6.56034 8.39548 6.27408 8.58632L6.2731 8.58697C6.01895 8.74582 5.79597 8.93677 5.57197 9.16077L5.56978 9.16296C5.34885 9.35232 5.15832 9.60565 4.9975 9.83075C4.83779 10.0864 4.67801 10.3739 4.55007 10.6297C4.42252 10.9488 4.32689 11.2678 4.26312 11.5865C4.19924 11.938 4.16725 12.3218 4.16725 12.6736C4.16725 13.0253 4.19924 13.4091 4.26312 13.7606C4.32695 14.0796 4.42269 14.3988 4.55041 14.7183C4.67962 15.009 4.80611 15.2927 4.99459 15.5126L4.99656 15.5149L4.99816 15.5174C5.15701 15.7716 5.34752 15.9938 5.5697 16.1843L5.57205 16.1863C5.76987 16.3841 5.9674 16.5317 6.1901 16.6979C6.21784 16.7186 6.24597 16.7396 6.27453 16.7611C6.53048 16.921 6.81754 17.0803 7.13592 17.2076C7.45486 17.3352 7.80629 17.4311 8.12624 17.4951C8.51009 17.5591 8.89399 17.5911 9.31011 17.5911C9.69428 17.5911 10.1105 17.559 10.4944 17.4951C10.8452 17.4313 11.1643 17.3356 11.4836 17.2079C11.7734 17.0791 12.0599 16.9516 12.3461 16.7608L12.3471 16.7601C12.6013 16.6013 12.8243 16.4103 13.0483 16.1864C13.2719 15.9627 13.4634 15.7393 13.6227 15.5164C13.783 15.2599 13.942 14.9733 14.037 14.7198L14.0373 14.719C14.1652 14.3993 14.261 14.0798 14.3249 13.7605C14.3888 13.409 14.4208 13.0574 14.4208 12.6736C14.4208 12.2897 14.3888 11.9381 14.3249 11.5866C14.2611 11.2675 14.1654 10.9483 14.0376 10.6289C13.9085 10.3383 13.7814 10.053 13.6234 9.83176L13.622 9.82974C13.4631 9.57557 13.2727 9.35331 13.0505 9.16287L13.0482 9.16085C12.8242 8.93685 12.6013 8.74581 12.3471 8.58696C12.0908 8.42676 11.8033 8.26709 11.4843 8.13949C11.1654 8.01192 10.8139 7.916 10.494 7.85198C10.1101 7.78804 9.72624 7.75605 9.31011 7.75605C8.92628 7.75605 8.54218 7.78802 8.12563 7.85208ZM20.7321 7.7727C21.1207 7.70792 21.5414 7.67557 21.9298 7.67557C22.3505 7.67557 22.739 7.70794 23.1276 7.7727L23.1282 7.77279C23.4845 7.83759 23.8413 7.93484 24.1661 8.06477C24.491 8.19472 24.7829 8.35698 25.0417 8.51871C25.3022 8.68153 25.5296 8.87652 25.756 9.10276C25.9837 9.29816 26.1789 9.52596 26.3416 9.78602C26.5046 10.0145 26.6345 10.3069 26.7623 10.5944L26.764 10.5982C26.8936 10.9223 26.9909 11.2466 27.0558 11.5711L27.056 11.5718C27.1208 11.9284 27.1532 12.2849 27.1532 12.6736C27.1532 13.0622 27.1208 13.4188 27.0559 13.7753L27.0558 13.776C26.9909 14.1003 26.8937 14.4245 26.7641 14.7484C26.6662 15.0096 26.5036 15.3019 26.3422 15.5601L26.3409 15.5622C26.1785 15.7896 25.9838 16.0166 25.7571 16.2433C25.5305 16.4698 25.3029 16.6651 25.0422 16.8281C24.7498 17.023 24.4576 17.1528 24.1687 17.2812L24.1649 17.2829C23.8095 17.4122 23.4852 17.5094 23.1282 17.5743L23.1276 17.5744C22.7389 17.6392 22.3182 17.6715 21.9298 17.6715C21.5092 17.6715 21.1206 17.6392 20.7321 17.5744L20.7308 17.5742C20.407 17.5095 20.0505 17.4122 19.7258 17.2824C19.4009 17.1524 19.1089 16.9901 18.8502 16.8284L18.8472 16.8266C18.8183 16.8049 18.7899 16.7835 18.7616 16.7624C18.5397 16.5968 18.3377 16.446 18.1359 16.2444C17.9082 16.049 17.713 15.8212 17.5503 15.5611C17.3873 15.3326 17.2574 15.0403 17.1296 14.7528L17.1279 14.7489C16.9982 14.4248 16.9009 14.1005 16.836 13.776L16.8359 13.7753C16.7711 13.4187 16.7387 13.0299 16.7387 12.6736C16.7387 12.3172 16.7711 11.9285 16.8359 11.5718L16.836 11.5711C16.9009 11.2468 16.9982 10.9226 17.1277 10.5987C17.2257 10.3375 17.3882 10.0453 17.5496 9.78704L17.5509 9.78493C17.7116 9.55996 17.9069 9.29932 18.1359 9.10277C18.3621 8.87667 18.5893 8.68178 18.8497 8.51902C19.1421 8.32414 19.4343 8.19428 19.7232 8.06589L19.7257 8.06474C20.0499 7.93506 20.3745 7.83771 20.7315 7.7728L20.7321 7.7727ZM17.1277 10.5987C17.1278 10.5985 17.1278 10.5984 17.1279 10.5983L17.1652 10.6132L17.1276 10.5991C17.1276 10.5989 17.1277 10.5988 17.1277 10.5987ZM20.7456 7.85204C20.3947 7.91585 20.0757 8.01152 19.7563 8.13921C19.4665 8.26802 19.1801 8.39548 18.8938 8.58632L18.8928 8.58697C18.6387 8.74582 18.4157 8.93677 18.1917 9.16077L18.1895 9.16296C17.9686 9.35232 17.778 9.60565 17.6172 9.83074C17.457 10.0872 17.298 10.3739 17.2029 10.6273L17.2026 10.6281C17.0747 10.9478 16.9789 11.2673 16.915 11.5866C16.8511 11.9381 16.8192 12.3218 16.8192 12.6736C16.8192 13.0253 16.8511 13.409 16.915 13.7605C16.9789 14.0796 17.0746 14.3988 17.2023 14.7183C17.3314 15.0088 17.4585 15.2942 17.6165 15.5154L17.6179 15.5174C17.7768 15.7715 17.9672 15.9938 18.1894 16.1843L18.1918 16.1863C18.3896 16.3841 18.5871 16.5317 18.8098 16.6979C18.8376 16.7186 18.8657 16.7396 18.8943 16.7611C19.1502 16.921 19.4373 17.0803 19.7556 17.2076C20.0746 17.3352 20.426 17.4311 20.746 17.4951C21.1298 17.5591 21.5137 17.5911 21.9298 17.5911C22.314 17.5911 22.7302 17.559 23.1141 17.4951C23.4648 17.4313 23.784 17.3356 24.1361 17.2076C24.4257 17.0789 24.712 16.9515 24.9981 16.7608L24.999 16.7602C25.2532 16.6013 25.4762 16.4103 25.7002 16.1864C25.9238 15.9627 26.1153 15.7393 26.2746 15.5164C26.4349 15.2599 26.5939 14.9733 26.6889 14.7198L26.6893 14.719C26.8171 14.3993 26.9129 14.0799 26.9768 13.7606C27.0407 13.409 27.0727 13.0574 27.0727 12.6736C27.0727 12.2897 27.0407 11.9381 26.9768 11.5865C26.913 11.2675 26.8173 10.9483 26.6895 10.6289C26.5604 10.3383 26.4334 10.053 26.2754 9.83176L26.2739 9.82974C26.1151 9.57557 25.9246 9.35331 25.7024 9.16287L25.7001 9.16085C25.4761 8.93685 25.2532 8.74581 24.999 8.58696C24.7427 8.42676 24.4552 8.26709 24.1362 8.13949C23.8173 8.01191 23.4659 7.91602 23.1141 7.85204C22.7301 7.78806 22.3461 7.75605 21.9298 7.75605C21.5457 7.75605 21.1295 7.78807 20.7456 7.85204Z" fill="white"/>
</svg>
